<?xml version="1.0" encoding="UTF-8" standalone="no"?>
<svg
   id="Layer_1"
   data-name="Layer 1"
   viewBox="0 0 2739.8125 358"
   version="1.1"
   sodipodi:docname="banner.svg"
   inkscape:version="1.1.2 (0a00cf5339, 2022-02-04, custom)"
   width="724.90875mm"
   height="94.720833mm"
   inkscape:export-filename="/home/alu/projects/napari-kics/docs/banner.png"
   inkscape:export-xdpi="53.631287"
   inkscape:export-ydpi="53.631287"
   xmlns:inkscape="http://www.inkscape.org/namespaces/inkscape"
   xmlns:sodipodi="http://sodipodi.sourceforge.net/DTD/sodipodi-0.dtd"
   xmlns="http://www.w3.org/2000/svg"
   xmlns:svg="http://www.w3.org/2000/svg">
  <sodipodi:namedview
     id="namedview49"
     pagecolor="#ffffff"
     bordercolor="#666666"
     borderopacity="1.0"
     inkscape:pageshadow="2"
     inkscape:pageopacity="0.0"
     inkscape:pagecheckerboard="0"
     showgrid="false"
     inkscape:zoom="0.99787847"
     inkscape:cx="1326.3138"
     inkscape:cy="-7.0148823"
     inkscape:window-width="3440"
     inkscape:window-height="1366"
     inkscape:window-x="1366"
     inkscape:window-y="32"
     inkscape:window-maximized="1"
     inkscape:current-layer="Layer_1"
     fit-margin-right="83"
     fit-margin-top="0"
     fit-margin-left="0"
     fit-margin-bottom="0"
     inkscape:document-units="mm"
     units="mm" />
  <defs
     id="defs4">
    <style
       id="style2">.cls-1{fill:#f2f2f2;stroke:#000;}.cls-1,.cls-4,.cls-5,.cls-6,.cls-7,.cls-8{stroke-miterlimit:10;stroke-width:5px;}.cls-2{fill:#22b573;}.cls-3{fill:#0071bc;}.cls-4,.cls-5,.cls-6,.cls-7,.cls-8{fill:none;stroke:#c1272d;}.cls-5{stroke-dasharray:10.89 10.89;}.cls-6{stroke-dasharray:12.58 12.58;}.cls-7{stroke-dasharray:11.87 11.87;}.cls-8{stroke-dasharray:12.44 12.44;}</style>
  </defs>
  <rect
     class="cls-1"
     x="2.5"
     y="2.5"
     width="333"
     height="353"
     id="rect6" />
  <path
     class="cls-2"
     d="m 131.87,216 c 10.88,-20.74 8.94,-43.78 -5.07,-62.66 C 114.87,137.25 97.35,126.34 80.21,116 63.07,105.66 45.46,95 33.14,79.19 23.47,66.79 18.08,47.74 28.63,36.09 c 7.84,-8.67 21.14,-9.44 32.72,-7.87 39.54,5.35 74.07,33 99.4,62.5 16.75,19.51 39.54,46.5 43.18,73 3.85,27.93 -13.86,58.63 -28,81.45 -17.34,27.93 -36,56.78 -60.74,78.75 -10.5,9.31 -25.27,17.66 -37.9,11.55 -10.91,-5.29 -14.75,-19.69 -11.82,-31.46 2.93,-11.77 11,-21.48 18.77,-30.76 14.34,-17.11 36.36,-35.77 47.63,-57.25 z"
     id="path8" />
  <path
     d="m 134.46,217.52 a 61.78,61.78 0 0 0 6.12,-41.11 C 137.66,162.27 129.39,150.04 119.11,140.15 98.39,120.23 70.85,109.79 49.06,91.29 39.18,82.89 30.06,72.74 26.86,59.84 25.53,54.46 25.31,48.51 27.51,43.31 A 20,20 0 0 1 39.65,32.45 c 5.8,-2 12,-2.15 18.09,-1.62 a 98.27,98.27 0 0 1 19.71,4 138.29,138.29 0 0 1 36.55,17.63 c 22.71,15.11 41.22,35.4 58.14,56.6 8.77,11 17.05,22.67 22.89,35.53 a 73.9,73.9 0 0 1 5.77,18.54 60.67,60.67 0 0 1 -0.3,19.87 c -2.39,13.87 -8.1,26.95 -14.69,39.3 -6.59,12.35 -14.26,24.4 -21.87,36.27 a 417.78,417.78 0 0 1 -25.61,36.35 c -4.59,5.71 -9.4,11.25 -14.5,16.53 a 125.27,125.27 0 0 1 -16,14.61 c -9.41,6.83 -23.95,13.25 -33.76,3.49 -8.17,-8.13 -7.84,-21.42 -3.47,-31.31 2.92,-6.59 7.22,-12.48 11.75,-18 q 6.24,-7.66 13,-14.85 c 9.55,-10.2 19.51,-20.05 28.1,-31.11 a 115.11,115.11 0 0 0 11,-16.7 c 1.8,-3.41 -3.37,-6.45 -5.18,-3 -6.68,12.64 -16.29,23.41 -26,33.76 -9.71,10.35 -19.48,20.24 -28.1,31.38 -4.56,5.89 -8.63,12.12 -11.23,19.14 A 37.61,37.61 0 0 0 62,318 a 29,29 0 0 0 7.63,15.66 23.84,23.84 0 0 0 18.07,6.89 c 14.78,-0.74 27,-11.55 37,-21.43 a 270.16,270.16 0 0 0 29.39,-35.17 c 8.81,-12.33 16.92,-25.15 24.9,-38 7.61,-12.29 14.86,-24.85 20.38,-38.25 5.42,-13.15 9.26,-27.66 7.8,-42 -1.46,-14.34 -7.81,-27.52 -15.36,-39.5 -7.7,-12.23 -16.91,-23.45 -26.28,-34.42 A 269.1,269.1 0 0 0 136.29,61.96 C 114.73,43.5 89.01,28.7 60.45,25.17 c -12.76,-1.58 -27.62,0 -35.78,11.15 -7.86,10.75 -4.95,25.51 0.77,36.49 6.6,12.68 18.15,22.52 29.59,30.7 C 67,112 80,119 92.29,127 c 12.05,7.81 23.9,16.73 32.39,28.47 8.32,11.53 12.54,25.53 10.77,39.76 a 57.4,57.4 0 0 1 -6.17,19.26 c -1.78,3.42 3.4,6.51 5.18,3.03 z"
     id="path10" />
  <path
     class="cls-3"
     d="m 271.16,223.87 c -8.78,-18.24 -17.79,-36.92 -13.56,-57 3.5,-16.69 15.93,-29.78 26.71,-43 9.06,-11.12 31.59,-43.44 10.09,-53.61 -8.23,-3.9 -17.74,1.48 -24.78,7.25 A 156.38,156.38 0 0 0 236,281 c 5.08,8.16 11.37,16.21 20.3,19.73 32.91,13 30.94,-36.43 24.81,-54.16 a 216.24,216.24 0 0 0 -9.95,-22.7 z"
     id="path12" />
  <path
     d="m 273.75,222.35 c -5.11,-10.6 -10.33,-21.32 -12.86,-32.89 -2.37,-10.83 -1.66,-22.08 3.05,-32.2 7.69,-16.54 21.95,-28.72 31.65,-44 4.18,-6.57 8,-13.73 9.85,-21.35 1.7,-7 1.4,-14.8 -3.85,-20.28 a 19,19 0 0 0 -12.1,-5.72 c -5.66,-0.41 -11.3,2 -16,5 a 90.63,90.63 0 0 0 -12.63,10.16 151.1,151.1 0 0 0 -11,11.21 163.09,163.09 0 0 0 -31.84,54.4 156.79,156.79 0 0 0 -8,64.68 162.05,162.05 0 0 0 19.49,64.54 c 5.16,9.31 11.24,19.08 20.41,24.93 6,3.83 14.23,6.32 21.32,4.4 12,-3.24 15.43,-17.36 16.25,-28.15 a 88.51,88.51 0 0 0 -0.75,-19 74.83,74.83 0 0 0 -5.11,-18.48 c -2.39,-5.85 -5.12,-11.55 -7.86,-17.24 a 3,3 0 0 0 -5.18,3 c 4.12,8.56 8.68,17.26 10.93,26.54 0.61,2.56 1.07,5.14 1.44,7.74 -0.12,-0.84 0,0.23 0,0.42 l 0.12,1 c 0.09,0.76 0.16,1.52 0.23,2.28 0.13,1.48 0.22,3 0.28,4.45 a 80.21,80.21 0 0 1 -0.13,9 c 0,0.74 -0.12,1.49 -0.2,2.23 l -0.12,1 c 0,0 -0.1,0.79 0,0.29 0.1,-0.5 0,0.31 -0.06,0.4 -0.21,1.42 -0.48,2.82 -0.8,4.21 a 39.82,39.82 0 0 1 -1.18,4 c -0.09,0.27 -0.18,0.53 -0.28,0.79 -0.1,0.26 -0.52,1.25 -0.16,0.43 -0.27,0.61 -0.55,1.22 -0.85,1.81 a 28.18,28.18 0 0 1 -1.93,3.1 c 0.51,-0.72 0,0 -0.16,0.2 l -0.55,0.62 a 17.21,17.21 0 0 1 -1.3,1.26 l -0.28,0.23 c -0.45,0.42 0.45,-0.33 0.12,-0.08 l -0.66,0.46 a 12.13,12.13 0 0 1 -1.56,0.9 c -0.21,0.11 -1.16,0.46 -0.28,0.15 l -0.69,0.25 a 12.52,12.52 0 0 1 -1.82,0.49 c -0.2,0 -1.32,0.18 -0.37,0.09 l -0.8,0.08 a 18.57,18.57 0 0 1 -2.11,0 c -0.37,0 -0.75,0 -1.11,-0.08 h -0.46 c -0.76,-0.07 0.47,0.07 0,0 -0.82,-0.13 -1.62,-0.28 -2.43,-0.48 a 28.07,28.07 0 0 1 -10.87,-5.3 50.6,50.6 0 0 1 -9.82,-11.13 c -12,-17.81 -19.76,-38.62 -23.26,-59.77 a 151.8,151.8 0 0 1 2.74,-62.79 156.58,156.58 0 0 1 26.12,-54.16 A 152.44,152.44 0 0 1 266.6,84 67.18,67.18 0 0 1 278.73,74.82 c 4.1,-2.26 8.87,-3.83 13.38,-2.31 a 12.52,12.52 0 0 1 2.44,1.19 q 0.54,0.32 1.05,0.66 l 0.43,0.32 c -0.49,-0.37 0.11,0.09 0.22,0.18 a 18.69,18.69 0 0 1 1.67,1.66 c 0.11,0.13 0.43,0.57 0.05,0.05 l 0.28,0.39 c 0.24,0.36 0.47,0.72 0.69,1.09 0.22,0.37 0.31,0.63 0.47,0.94 0.26,0.48 0,0 0,-0.08 l 0.24,0.65 a 16.64,16.64 0 0 1 0.57,2.15 c 0,0.24 0.16,1.22 0.09,0.5 0,0.41 0.08,0.81 0.1,1.21 a 23.17,23.17 0 0 1 0,2.5 c 0,0.34 0,0.68 -0.08,1 0,0 -0.1,0.84 0,0.37 0.1,-0.47 -0.06,0.39 -0.06,0.39 -0.14,0.88 -0.32,1.76 -0.53,2.64 a 44.08,44.08 0 0 1 -1.59,5.13 c -0.15,0.41 -0.3,0.81 -0.47,1.22 -0.06,0.17 -0.48,1.17 -0.31,0.78 -0.39,0.91 -0.8,1.81 -1.23,2.71 -0.82,1.71 -1.7,3.38 -2.63,5 -1.78,3.16 -3.73,6.23 -5.8,9.21 q -1.39,2 -2.88,4 l -0.63,0.83 -0.27,0.36 c -0.44,0.58 0.28,-0.36 0,0 q -0.61,0.79 -1.26,1.59 c -6.5,8.07 -13.51,15.78 -19.12,24.54 -6,9.28 -9.77,19.62 -9.94,30.73 -0.18,11.68 3.43,22.94 8,33.57 2.2,5.19 4.64,10.27 7.09,15.34 a 3,3 0 0 0 4.1,1.08 3.06,3.06 0 0 0 0.95,-4.06 z"
     id="path14" />
  <polyline
     class="cls-4"
     points="318.5 307.5 318.5 313.5 312.5 313.5"
     id="polyline16" />
  <line
     class="cls-5"
     x1="301.60999"
     y1="313.5"
     x2="219.94"
     y2="313.5"
     id="line18" />
  <polyline
     class="cls-4"
     points="214.5 313.5 208.5 313.5 208.5 307.5"
     id="polyline20" />
  <line
     class="cls-6"
     x1="208.5"
     y1="294.92001"
     x2="208.5"
     y2="74.790001"
     id="line22" />
  <polyline
     class="cls-4"
     points="208.5 68.5 208.5 62.5 214.5 62.5"
     id="polyline24" />
  <line
     class="cls-5"
     x1="225.39"
     y1="62.5"
     x2="307.06"
     y2="62.5"
     id="line26" />
  <polyline
     class="cls-4"
     points="312.5 62.5 318.5 62.5 318.5 68.5"
     id="polyline28" />
  <line
     class="cls-6"
     x1="318.5"
     y1="81.080002"
     x2="318.5"
     y2="301.20999"
     id="line30" />
  <polyline
     class="cls-4"
     points="208.5 336.5 208.5 342.5 202.5 342.5"
     id="polyline32" />
  <line
     class="cls-7"
     x1="190.63"
     y1="342.5"
     x2="30.429993"
     y2="342.5"
     id="line34" />
  <polyline
     class="cls-4"
     points="24.5 342.5 18.5 342.5 18.5 336.5"
     id="polyline36" />
  <line
     class="cls-8"
     x1="18.5"
     y1="324.06"
     x2="18.5"
     y2="31.720001"
     id="line38" />
  <polyline
     class="cls-4"
     points="18.5 25.5 18.5 19.5 24.5 19.5"
     id="polyline40" />
  <line
     class="cls-7"
     x1="36.369995"
     y1="19.5"
     x2="196.57001"
     y2="19.5"
     id="line42" />
  <polyline
     class="cls-4"
     points="202.5 19.5 208.5 19.5 208.5 25.5"
     id="polyline44" />
  <line
     class="cls-8"
     x1="208.5"
     y1="37.939999"
     x2="208.5"
     y2="330.28"
     id="line46" />
  <text
     xml:space="preserve"
     style="font-size:192px;line-height:1.25;font-family:'Open Sans';-inkscape-font-specification:'Open Sans';text-decoration:none;text-decoration-line:none;text-decoration-color:#000000;letter-spacing:0px;word-spacing:0px;fill:#000000"
     x="424.5"
     y="228.875"
     id="text4847"><tspan
       sodipodi:role="line"
       id="tspan4845"
       x="424.5"
       y="228.875">napari-kics</tspan></text>
</svg>
