<svg id="Layer_1" data-name="Layer 1" xmlns="http://www.w3.org/2000/svg" viewBox="0 0 338 358"><defs><style>.cls-1{fill:#f2f2f2;stroke:#000;}.cls-1,.cls-4,.cls-5,.cls-6,.cls-7,.cls-8{stroke-miterlimit:10;stroke-width:5px;}.cls-2{fill:#22b573;}.cls-3{fill:#0071bc;}.cls-4,.cls-5,.cls-6,.cls-7,.cls-8{fill:none;stroke:#c1272d;}.cls-5{stroke-dasharray:10.89 10.89;}.cls-6{stroke-dasharray:12.58 12.58;}.cls-7{stroke-dasharray:11.87 11.87;}.cls-8{stroke-dasharray:12.44 12.44;}</style></defs><rect class="cls-1" x="2.5" y="2.5" width="333" height="353"/><path class="cls-2" d="M678.87,620c10.88-20.74,8.94-43.78-5.07-62.66-11.93-16.09-29.45-27-46.59-37.34s-34.75-21-47.07-36.81c-9.67-12.4-15.06-31.45-4.51-43.1,7.84-8.67,21.14-9.44,32.72-7.87,39.54,5.35,74.07,33,99.4,62.5,16.75,19.51,39.54,46.5,43.18,73,3.85,27.93-13.86,58.63-28,81.45-17.34,27.93-36,56.78-60.74,78.75-10.5,9.31-25.27,17.66-37.9,11.55-10.91-5.29-14.75-19.69-11.82-31.46s11-21.48,18.77-30.76C645.58,660.14,667.6,641.48,678.87,620Z" transform="translate(-547 -404)"/><path d="M681.46,621.52a61.78,61.78,0,0,0,6.12-41.11c-2.92-14.14-11.19-26.37-21.47-36.26-20.72-19.92-48.26-30.36-70.05-48.86-9.88-8.4-19-18.55-22.2-31.45-1.33-5.38-1.55-11.33.65-16.53a20,20,0,0,1,12.14-10.86c5.8-2,12-2.15,18.09-1.62a98.27,98.27,0,0,1,19.71,4A138.29,138.29,0,0,1,661,456.46c22.71,15.11,41.22,35.4,58.14,56.6,8.77,11,17.05,22.67,22.89,35.53a73.9,73.9,0,0,1,5.77,18.54A60.67,60.67,0,0,1,747.5,587c-2.39,13.87-8.1,26.95-14.69,39.3s-14.26,24.4-21.87,36.27a417.78,417.78,0,0,1-25.61,36.35c-4.59,5.71-9.4,11.25-14.5,16.53a125.27,125.27,0,0,1-16,14.61c-9.41,6.83-23.95,13.25-33.76,3.49-8.17-8.13-7.84-21.42-3.47-31.31,2.92-6.59,7.22-12.48,11.75-18q6.24-7.66,13-14.85c9.55-10.2,19.51-20.05,28.1-31.11a115.11,115.11,0,0,0,11-16.7c1.8-3.41-3.37-6.45-5.18-3-6.68,12.64-16.29,23.41-26,33.76s-19.48,20.24-28.1,31.38c-4.56,5.89-8.63,12.12-11.23,19.14A37.61,37.61,0,0,0,609,722a29,29,0,0,0,7.63,15.66,23.84,23.84,0,0,0,18.07,6.89c14.78-.74,27-11.55,37-21.43a270.16,270.16,0,0,0,29.39-35.17c8.81-12.33,16.92-25.15,24.9-38,7.61-12.29,14.86-24.85,20.38-38.25,5.42-13.15,9.26-27.66,7.8-42s-7.81-27.52-15.36-39.5c-7.7-12.23-16.91-23.45-26.28-34.42a269.1,269.1,0,0,0-29.24-29.82c-21.56-18.46-47.28-33.26-75.84-36.79-12.76-1.58-27.62,0-35.78,11.15-7.86,10.75-4.95,25.51.77,36.49,6.6,12.68,18.15,22.52,29.59,30.7C614,516,627,523,639.29,531c12.05,7.81,23.9,16.73,32.39,28.47C680,571,684.22,585,682.45,599.23a57.4,57.4,0,0,1-6.17,19.26C674.5,621.91,679.68,625,681.46,621.52Z" transform="translate(-547 -404)"/><path class="cls-3" d="M818.16,627.87c-8.78-18.24-17.79-36.92-13.56-57,3.5-16.69,15.93-29.78,26.71-43,9.06-11.12,31.59-43.44,10.09-53.61-8.23-3.9-17.74,1.48-24.78,7.25A156.38,156.38,0,0,0,783,685c5.08,8.16,11.37,16.21,20.3,19.73,32.91,13,30.94-36.43,24.81-54.16A216.24,216.24,0,0,0,818.16,627.87Z" transform="translate(-547 -404)"/><path d="M820.75,626.35c-5.11-10.6-10.33-21.32-12.86-32.89-2.37-10.83-1.66-22.08,3.05-32.2,7.69-16.54,21.95-28.72,31.65-44,4.18-6.57,8-13.73,9.85-21.35,1.7-7,1.4-14.8-3.85-20.28a19,19,0,0,0-12.1-5.72c-5.66-.41-11.3,2-16,5a90.63,90.63,0,0,0-12.63,10.16,151.1,151.1,0,0,0-11,11.21,163.09,163.09,0,0,0-31.84,54.4,156.79,156.79,0,0,0-8,64.68,162.05,162.05,0,0,0,19.49,64.54c5.16,9.31,11.24,19.08,20.41,24.93,6,3.83,14.23,6.32,21.32,4.4,12-3.24,15.43-17.36,16.25-28.15a88.51,88.51,0,0,0-.75-19,74.83,74.83,0,0,0-5.11-18.48c-2.39-5.85-5.12-11.55-7.86-17.24a3,3,0,0,0-5.18,3c4.12,8.56,8.68,17.26,10.93,26.54.61,2.56,1.07,5.14,1.44,7.74-.12-.84,0,.23,0,.42l.12,1c.09.76.16,1.52.23,2.28.13,1.48.22,3,.28,4.45a80.21,80.21,0,0,1-.13,9c0,.74-.12,1.49-.2,2.23l-.12,1s-.1.79,0,.29,0,.31-.06.4c-.21,1.42-.48,2.82-.8,4.21a39.82,39.82,0,0,1-1.18,4c-.09.27-.18.53-.28.79s-.52,1.25-.16.43c-.27.61-.55,1.22-.85,1.81a28.18,28.18,0,0,1-1.93,3.1c.51-.72,0,0-.16.2l-.55.62a17.21,17.21,0,0,1-1.3,1.26l-.28.23c-.45.42.45-.33.12-.08l-.66.46a12.13,12.13,0,0,1-1.56.9c-.21.11-1.16.46-.28.15l-.69.25a12.52,12.52,0,0,1-1.82.49c-.2,0-1.32.18-.37.09l-.8.08a18.57,18.57,0,0,1-2.11,0c-.37,0-.75,0-1.11-.08l-.46,0c-.76-.07.47.07,0,0-.82-.13-1.62-.28-2.43-.48a28.07,28.07,0,0,1-10.87-5.3,50.6,50.6,0,0,1-9.82-11.13c-12-17.81-19.76-38.62-23.26-59.77a151.8,151.8,0,0,1,2.74-62.79,156.58,156.58,0,0,1,26.12-54.16A152.44,152.44,0,0,1,813.6,488a67.18,67.18,0,0,1,12.13-9.18c4.1-2.26,8.87-3.83,13.38-2.31a12.52,12.52,0,0,1,2.44,1.19q.54.32,1.05.66l.43.32c-.49-.37.11.09.22.18a18.69,18.69,0,0,1,1.67,1.66c.11.13.43.57.05.05l.28.39c.24.36.47.72.69,1.09s.31.63.47.94c.26.48,0,0,0-.08l.24.65a16.64,16.64,0,0,1,.57,2.15c0,.24.16,1.22.09.5,0,.41.08.81.1,1.21a23.17,23.17,0,0,1,0,2.5c0,.34,0,.68-.08,1,0,0-.1.84,0,.37s-.06.39-.06.39c-.14.88-.32,1.76-.53,2.64a44.08,44.08,0,0,1-1.59,5.13c-.15.41-.3.81-.47,1.22-.06.17-.48,1.17-.31.78-.39.91-.8,1.81-1.23,2.71-.82,1.71-1.7,3.38-2.63,5-1.78,3.16-3.73,6.23-5.8,9.21q-1.39,2-2.88,4l-.63.83-.27.36c-.44.58.28-.36,0,0q-.61.79-1.26,1.59c-6.5,8.07-13.51,15.78-19.12,24.54-6,9.28-9.77,19.62-9.94,30.73-.18,11.68,3.43,22.94,8,33.57,2.2,5.19,4.64,10.27,7.09,15.34a3,3,0,0,0,4.1,1.08A3.06,3.06,0,0,0,820.75,626.35Z" transform="translate(-547 -404)"/><polyline class="cls-4" points="318.5 307.5 318.5 313.5 312.5 313.5"/><line class="cls-5" x1="301.61" y1="313.5" x2="219.94" y2="313.5"/><polyline class="cls-4" points="214.5 313.5 208.5 313.5 208.5 307.5"/><line class="cls-6" x1="208.5" y1="294.92" x2="208.5" y2="74.79"/><polyline class="cls-4" points="208.5 68.5 208.5 62.5 214.5 62.5"/><line class="cls-5" x1="225.39" y1="62.5" x2="307.06" y2="62.5"/><polyline class="cls-4" points="312.5 62.5 318.5 62.5 318.5 68.5"/><line class="cls-6" x1="318.5" y1="81.08" x2="318.5" y2="301.21"/><polyline class="cls-4" points="208.5 336.5 208.5 342.5 202.5 342.5"/><line class="cls-7" x1="190.63" y1="342.5" x2="30.43" y2="342.5"/><polyline class="cls-4" points="24.5 342.5 18.5 342.5 18.5 336.5"/><line class="cls-8" x1="18.5" y1="324.06" x2="18.5" y2="31.72"/><polyline class="cls-4" points="18.5 25.5 18.5 19.5 24.5 19.5"/><line class="cls-7" x1="36.37" y1="19.5" x2="196.57" y2="19.5"/><polyline class="cls-4" points="202.5 19.5 208.5 19.5 208.5 25.5"/><line class="cls-8" x1="208.5" y1="37.94" x2="208.5" y2="330.28"/></svg>